PathFileType	4	(X/Y/Z)	C:/Users/beibeiliu/ov580/test_trc/User2\sequence.6_training_dense_left.trc
DataRate	CameraRate	NumFrames	NumMarkers	Units	OrigDataRate	OrigDataStartFrame	OrigNumFrames
120	120	24	19	mm	120	286	381
Frame#	Time	ThumbCMC			ThumbMCP			ThumbIP			ThumbTip			IndexMCP			IndexPIP			IndexTip			MiddleMCP			MiddlePIP			MiddleTip			RingMCP			RingPIP			RingTip			PinkyMCP			PinkyPIP			PinkyTip			BackHand1			BackHand2			BackHand3	
		X0	Y0	Z0	X1	Y1	Z1	X2	Y2	Z2	X3	Y3	Z3	X4	Y4	Z4	X5	Y5	Z5	X6	Y6	Z6	X7	Y7	Z7	X8	Y8	Z8	X9	Y9	Z9	X10	Y10	Z10	X11	Y11	Z11	X12	Y12	Z12	X13	Y13	Z13	X14	Y14	Z14	X15	Y15	Z15	X16	Y16	Z16	X17	Y17	Z17	X18	Y18	Z18	
285	2.375	-73.3041	18.0076	105.622	-54.9556	-19.0273	106.944	-56.9977	-53.2596	104.037	-73.2612	-78.5858	99.5309	-93.3155	-20.8894	33.2864	-78.4131	-51.4615	29.5872	-68.1542	-63.7942	58.5051	-108.551	-43.7822	48.0743	-88.3224	-69.3749	65.0174	-74.7371	-58.8942	99.4725	-119.896	-50.1216	69.1335	-98.0747	-69.6474	86.3114	-83.0795	-56.6871	117.182	-128.92	-51.5757	87.4776	-105.151	-61.195	110.114	-92.1189	-37.0358	124.649	-140.992	9.487	84.7428	-142.786	30.9677	108.671	-110.016	36.3027	86.6824	
286	2.38333	-71.4777	10.6578	107.401	-55.468	-23.8484	107.819	-56.0766	-60.978	97.085	-75.8591	-80.8567	91.1402	-92.6147	-16.0189	31.0884	-83.8997	-44.7213	21.5685	-73.9526	-65.2558	45.426	-109.718	-37.6721	45.648	-93.0451	-69.5969	55.9138	-77.4218	-63.5613	95.0031	-116.467	-52.5244	61.5909	-100.822	-75.0513	79.9781	-82.3245	-65.5197	110.562	-133.764	-54.2473	84.1942	-107.572	-68.482	98.3504	-89.6407	-47.2059	118.928	-138.653	4.49591	86.7487	-136.481	29.7822	113.128	-105.215	33.5113	92.0946	
287	2.39167	-68.0378	7.582	110.937	-58.0654	-30.5483	101.683	-54.903	-65.4583	89.2899	-76.2948	-85.8624	80.6733	-92.5806	-9.07998	29.7042	-90.269	-34.5996	12.9846	-74.967	-66.201	28.5807	-109.365	-34.7965	41.5325	-90.8889	-70.5119	50.4243	-78.1533	-68.3423	86.1661	-119.499	-49.7264	58.4307	-102.847	-74.8282	68.0886	-82.4754	-72.9229	100.105	-135.185	-53.2479	78.4543	-109.386	-71.2845	91.0951	-92.1228	-54.5532	109.547	-138.781	4.91157	86.958	-137.096	26.9089	119.86	-103.028	30.5851	94.9817	
288	2.4	-69.974	2.30302	110.83	-53.7066	-33.701	100.015	-55.8701	-66.5543	82.1773	-72.3427	-84.9549	74.6099	-97.9613	-4.68779	32.0365	-94.2879	-24.0292	6.44755	-85.273	-57.494	5.08382	-112.21	-36.7111	37.445	-97.4444	-68.9188	43.1511	-78.1233	-72.1449	80.3136	-125.425	-50.3593	54.9436	-104.605	-73.7152	61.3634	-85.0792	-75.0929	90.0707	-137.023	-55.0818	73.3993	-109.726	-73.3991	86.3076	-91.5712	-56.5183	107.458	-139.889	4.69316	91.2542	-135.969	20.3781	121.287	-106.076	24.9003	94.4987	
289	2.40833	-71.9731	3.4315	108.705	-56.0183	-31.2719	94.915	-55.9825	-64.0651	74.3494	-67.7857	-85.5351	64.058	-102.235	-1.44394	32.6169	-105.953	-21.0603	3.06393	-100.182	-48.8587	-9.07727	-116.795	-32.9336	36.6976	-102.058	-67.101	35.101	-80.0357	-73.9169	74.4203	-124.641	-51.4961	49.6486	-104.971	-75.0201	57.2968	-87.3284	-76.2913	89.6712	-138.835	-56.8844	71.8552	-113.373	-75.3805	78.8576	-93.2918	-56.7214	102.871	-142.75	-1.59583	88.7299	-142.043	17.1324	120.647	-114.013	24.1077	96.7272	
290	2.41667	-78.5332	5.91757	102.79	-60.8503	-26.9703	84.6974	-57.5021	-58.699	65.358	-71.8751	-81.1504	56.4672	-116.36	-1.48962	30.5359	-122.812	-19.4785	0.0898264	-118.54	-40.7499	-16.7995	-124.607	-37.7723	31.8404	-105.653	-68.178	32.6061	-79.7139	-72.7583	63.0605	-130.345	-54.4921	48.6311	-108.623	-76.4736	55.2956	-86.7031	-71.9592	84.756	-143.243	-60.7982	71.5443	-110.77	-77.1209	81.5468	-97.2414	-58.1224	100.968	-149.595	-2.14626	91.4603	-149.627	11.0391	120.897	-123.739	19.066	92.743	
291	2.425	-89.5754	9.94021	93.9727	-72.8137	-21.2475	79.0769	-62.9814	-50.3919	59.7735	-67.8608	-73.6907	52.1824	-134.517	-4.66848	23.2856	-142.061	-23.0215	1.0407	-138.85	-44.6068	-17.838	-135.51	-37.7453	30.8892	-113.407	-67.4377	28.4777	-83.4617	-68.4193	55.5171	-139.125	-58.3299	50.3169	-114.789	-77.4806	54.1005	-87.5204	-67.3983	79.9599	-142.022	-71.0037	70.9152	-112.142	-75.1404	76.8258	-97.769	-55.861	96.92	-161.505	-15.0041	92.8398	-159.692	2.36969	124.182	-136.75	20.0412	93.1034	
292	2.43333	-102.804	13.3016	88.359	-82.6024	-14.3732	72.7203	-69.3161	-40.6547	54.2234	-74.2449	-68.1606	43.9958	-153.773	-12.401	28.2695	-157.93	-27.5885	4.37683	-150.554	-52.2568	-14.9299	-146.8	-45.2872	34.2311	-114.867	-65.9989	25.9575	-87.7353	-63.9305	49.3233	-142.925	-61.6936	48.837	-110.784	-75.9391	52.1333	-90.9153	-64.1872	73.4339	-146.121	-72.4454	74.3862	-111.859	-75.2977	74.7067	-99.2327	-50.6561	89.9734	-169.113	-21.5766	97.6228	-162.71	-2.7748	121.94	-150.729	15.9523	93.5161	
293	2.44167	-115.474	16.9267	90.33	-89.3977	-5.65744	69.3577	-78.0406	-36.676	45.7959	-76.4827	-58.9048	40.1315	-165.824	-13.836	32.305	-170.326	-35.8467	5.06644	-153.605	-55.2096	-11.3216	-154.801	-47.2665	30.2208	-124.55	-65.6862	24.6167	-93.5699	-59.2818	47.5177	-149.939	-62.1377	50.8705	-119.495	-72.7991	45.3863	-92.6474	-60.0603	66.6283	-145.648	-70.9767	71.3291	-112.192	-69.8011	68.5777	-101.542	-44.7339	85.0129	-174.83	-29.8442	98.0241	-170.938	-9.84056	125.001	-160.586	10.8356	93.2652	
294	2.45	-125.407	18.3245	84.8117	-102.124	-2.86301	63.1443	-86.9482	-26.1581	43.7633	-82.8063	-51.5134	34.9104	-176.983	-18.0463	34.7246	-177.77	-42.5568	9.16706	-146.143	-56.7081	-3.65545	-161.941	-52.6439	35.359	-132.786	-65.767	22.0297	-95.7975	-50.7388	41.5399	-152.16	-66.9049	51.9997	-118.831	-73.3733	44.3181	-94.5309	-56.5105	60.3336	-143.01	-78.3466	69.8772	-110.573	-69.9492	66.8849	-102.68	-42.0569	83.4198	-176.685	-34.7791	100.187	-173.411	-16.2353	134.264	-169.601	6.30904	99.9112	
295	2.45833	-137.413	17.1957	89.3246	-109.649	2.12903	59.8949	-95.8867	-20.8695	40.6913	-88.705	-47.1109	26.1573	-187.726	-26.6377	33.6147	-180.682	-48.6544	11.1793	-148.95	-52.8241	1.666	-168.427	-51.6283	36.7007	-137.717	-65.4459	20.4954	-102.129	-47.6438	36.8723	-153.455	-66.5929	50.6704	-117.951	-70.3583	41.3723	-98.0699	-46.7075	52.2661	-142.847	-78.6032	71.8571	-111.602	-67.9734	60.681	-101.942	-39.8668	75.6418	-178.371	-37.5219	103.314	-174.564	-23.557	131.969	-176.252	-0.012587	101.638	
296	2.46667	-146.565	18.0314	89.3059	-120.105	4.63256	61.7438	-102.526	-17.1162	33.2701	-93.5593	-39.9881	23.6433	-192.974	-32.9971	37.1288	-189.231	-49.6564	12.0969	-153.184	-53.2374	1.57573	-169.636	-55.6947	34.3888	-137.917	-60.9298	16.6794	-106.451	-45.2221	31.9102	-152.954	-68.4592	50.2233	-119.809	-67.831	38.1776	-98.6642	-43.839	49.6468	-138.891	-78.1783	67.5932	-112.548	-63.5379	55.4115	-102.418	-39.1011	65.7973	-178.872	-47.5978	103.764	-173.527	-25.8572	133.543	-182.925	-4.91645	104.788	
297	2.475	-154.38	16.2491	83.9559	-127.974	5.93268	60.8011	-108.236	-9.73345	33.7057	-96.9957	-33.6945	22.6505	-198.305	-36.5381	38.9222	-193.887	-53.7097	11.1885	-161.703	-58.2648	-4.12597	-170.06	-61.9312	39.218	-139.518	-60.3131	15.6064	-107.915	-37.0868	27.5513	-150.091	-70.2948	48.2366	-120.499	-66.4497	36.8136	-101.248	-34.7337	43.9143	-136.781	-77.9726	69.7731	-113.066	-63.293	53.2016	-101.7	-31.1513	66.5539	-173.741	-49.1889	107.523	-174.13	-34.5637	136.017	-185.451	-13.2225	102.506	
298	2.48333	-159.814	15.2763	85.574	-132.639	10.7517	57.8948	-113.832	-8.74958	32.2671	-100.952	-26.7937	20.8347	-200.362	-42.7616	41.4214	-197.114	-59.3983	14.4829	-172.349	-63.5006	-9.9474	-171.38	-60.9209	35.162	-142.252	-60.4778	14.7714	-108.892	-34.8531	27.6129	-150.3	-68.4946	46.3466	-121.673	-58.4764	32.1194	-103.729	-34.886	42.0006	-136.757	-74.4167	65.461	-109.475	-58.4931	52.4527	-100.551	-33.267	62.0346	-175.38	-48.9262	106.331	-174.471	-32.7986	136.133	-189.169	-14.8682	105.312	
299	2.49167	-164.287	15.2244	84.7136	-138.757	9.75798	60.3036	-118.931	-6.74916	29.6454	-105.556	-27.6365	15.3658	-202.663	-45.31	42.5812	-203.594	-61.8505	18.0029	-187.161	-68.9027	-6.56141	-170.547	-65.1687	37.3496	-144.625	-61.0478	15.8014	-116.797	-34.1744	21.7124	-151.134	-70.8023	51.7242	-122.608	-60.3852	33.9611	-108.701	-31.7339	39.0252	-135.708	-76.0917	69.733	-116.008	-60.5644	50.1153	-105.361	-26.1672	57.8983	-175.335	-51.5484	108.99	-173.974	-35.689	137.352	-190.542	-17.0998	106.307	
300	2.5	-167.708	17.0622	90.3616	-144.19	8.11813	55.7535	-126.526	-5.78093	30.9892	-111.276	-25.0986	14.887	-206.509	-47.8635	46.5962	-212.067	-59.7479	19.5517	-198.042	-74.4693	-5.3952	-174.582	-65.626	40.492	-148.591	-60.0404	15.7675	-123.541	-32.0524	21.0746	-152.911	-71.2321	48.306	-130.942	-59.6735	31.8994	-110.741	-26.7785	40.944	-136.303	-76.0296	65.073	-115.778	-59.8494	48.4495	-109.676	-30.3913	54.3047	-174.874	-50.8031	109.577	-176.416	-35.0216	136.03	-192.366	-20.4589	109.743	
301	2.50833	-172.365	13.7582	89.2712	-150.553	9.33524	54.2651	-132.194	-1.21165	27.7852	-119.628	-19.9107	14.2684	-209.781	-45.8056	50.3685	-217.469	-60.7684	24.0447	-210.581	-72.2835	-5.20863	-181.198	-63.6565	44.019	-151.91	-57.8025	15.4351	-127.016	-32.3021	22.3002	-159.824	-67.6858	49.7967	-132.59	-59	30.8961	-119.067	-22.9775	37.3162	-140.408	-75.8764	65.2612	-120.221	-57.3853	46.2094	-114.8	-27.7964	51.9063	-174.529	-53.4896	111.977	-175.234	-36.4848	139.152	-197.885	-18.8342	110.891	
302	2.51667	-177.24	16.5822	88.487	-155.262	11.3768	52.8294	-139.076	-0.225351	28.8898	-124.432	-22.7485	9.95425	-216.956	-43.8797	50.8503	-222.51	-62.3464	26.1409	-211.463	-74.3539	-6.1454	-183.845	-65.0931	41.4995	-158.273	-57.3813	14.4038	-135.112	-30.3703	17.9541	-161.465	-69.1228	46.4658	-136.84	-59.3092	30.7149	-122.16	-23.0413	37.1684	-144.614	-73.0725	64.1169	-126.133	-54.7395	43.8642	-117.785	-25.4848	51.5922	-178.081	-52.6759	112.464	-174.009	-36.9485	140.054	-198.857	-16.5643	113.13	
303	2.525	-179.177	15.878	90.6632	-158.844	13.0862	53.9495	-141.359	-0.498182	29.871	-125.838	-17.9323	11.317	-214.04	-49.1694	52.9275	-216.083	-68.4672	23.8334	-200.911	-72.191	-3.33616	-184.423	-66.3977	39.5396	-156.822	-58.7031	16.1037	-136.266	-26.6041	19.7638	-159.954	-69.8787	52.3147	-140.673	-56.3584	29.9124	-124.286	-23.9729	37.1434	-145.887	-70.7351	66.0284	-122.077	-51.8012	45.552	-118.073	-25.0352	51.7065	-179.297	-54.1502	109.994	-177.239	-38.655	139.636	-200.128	-18.9347	113.57	
304	2.53333	-181.596	12.6901	89.9559	-159.488	13.8892	55.1301	-141.875	-1.92257	30.1208	-125.785	-20.8219	16.1958	-209.118	-53.4502	50.5084	-204.854	-72.0042	22.0065	-180.367	-68.3746	-0.262455	-177.264	-68.5766	44.5808	-153.679	-63.2625	19.5239	-130.383	-28.0752	24.5151	-154.433	-69.5578	49.8015	-133.907	-52.9784	30.7189	-121.814	-24.9319	37.9178	-137.833	-70.1522	67.1028	-120.834	-49.5455	48.4469	-116.339	-19.6831	53.3966	-179.19	-52.1599	113.807	-178.674	-34.0906	137.797	-203.249	-20.3103	110.556	
305	2.54167	-184.791	9.7814	87.8288	-161.72	10.4196	58.6701	-142.21	-0.049449	27.6037	-123.193	-18.2781	15.0069	-205.247	-60.0516	47.0554	-194.122	-77.3451	23.6562	-164.848	-61.7094	3.31054	-171.563	-70.5315	47.8403	-147.698	-62.2464	20.2077	-130.197	-24.6559	25.5794	-147.4	-70.6231	54.4511	-125.194	-57.2491	36.2677	-119.634	-21.1857	39.2717	-131.172	-69.9847	73.962	-113.969	-48.8608	50.6471	-114.599	-15.6066	54.5986	-173.116	-53.9206	113.814	-176.38	-39.63	139.872	-200.596	-24.5886	112.725	
306	2.55	-186.764	9.0301	90.2093	-163.725	7.49203	57.3672	-143.446	-3.13414	26.8754	-124.84	-15.4821	14.6413	-197.07	-66.4212	51.7193	-183.016	-81.5552	25.0263	-159.422	-62.801	9.35887	-166.537	-73.4036	47.6491	-141.748	-62.5532	22.3667	-129.386	-22.9133	28.7025	-140.978	-71.5777	55.0431	-122.431	-51.2262	35.2445	-115.723	-21.0208	40.8965	-130.053	-68.0451	73.3432	-112.374	-46.6422	51.3052	-110.967	-16.9447	54.1418	-171.094	-56.1598	113.506	-174.915	-38.6302	140.856	-198.087	-30.9604	113.464	
307	2.55833	-191.152	7.4922	88.0282	-167.982	10.6349	54.5341	-146.159	-2.17892	28.9294	-125.889	-17.933	15.3885	-197.125	-69.9551	54.0044	-181.961	-86.925	29.0617	-158.28	-70.0584	11.7911	-162.105	-75.8821	49.0057	-136.827	-61.8882	22.3131	-128.71	-25.6778	28.8336	-141.516	-71.6409	53.9145	-123.186	-52.9314	35.0709	-115.311	-21.5809	40.1875	-124.48	-68.8758	72.8997	-110.696	-50.094	50.83	-110.214	-16.0548	50.9557	-166.524	-56.9798	116.019	-174.149	-39.7378	139.821	-200.454	-32.1918	113.012	
308	2.56667	-189.021	1.21517	87.8251	-169.687	7.5231	55.799	-148.552	-0.768365	25.7434	-127.59	-14.4077	14.1715	-195.762	-72.8471	55.2606	-184.282	-91.7801	27.9424	-160.007	-77.4666	9.61283	-161.702	-78.1402	50.266	-139.643	-64.687	22.5166	-127.602	-28.4478	27.4256	-136.685	-72.6708	55.1536	-119.975	-55.3383	35.5231	-119.853	-21.977	36.0878	-121.96	-69.0964	76.427	-107.317	-48.4252	49.6488	-108.171	-20.6441	46.0906	-166.174	-57.2911	115.516	-168.238	-40.1939	142.027	-194.393	-36.798	113.829	
